<svg width="22" height="22" viewBox="0 0 22 22" fill="none" xmlns="http://www.w3.org/2000/svg">
<path d="M15.5835 3.06167C16.977 3.86621 18.1342 5.0234 18.9387 6.41692C19.7433 7.81044 20.1668 9.39119 20.1668 11.0003C20.1668 12.6094 19.7432 14.1901 18.9387 15.5836C18.1341 16.9771 16.9769 18.1343 15.5834 18.9389C14.1899 19.7434 12.6091 20.1669 11 20.1669C9.39092 20.1669 7.81018 19.7433 6.41668 18.9387C5.02318 18.1341 3.86601 16.9769 3.06149 15.5834C2.25698 14.1899 1.83346 12.6091 1.8335 11L1.83808 10.703C1.88942 9.11991 2.35008 7.57713 3.17517 6.22508C4.00025 4.87302 5.1616 3.75783 6.54598 2.98822C7.93037 2.21862 9.49055 1.82086 11.0744 1.83373C12.6583 1.8466 14.2118 2.26966 15.5835 3.06167ZM11.0002 5.5C10.757 5.5 10.5239 5.59658 10.352 5.76849C10.1801 5.94039 10.0835 6.17355 10.0835 6.41667C9.35415 6.41667 8.65468 6.7064 8.13895 7.22212C7.62323 7.73785 7.3335 8.43732 7.3335 9.16667C7.3335 9.89601 7.62323 10.5955 8.13895 11.1112C8.65468 11.6269 9.35415 11.9167 10.0835 11.9167V13.75C9.93147 13.7584 9.77969 13.7296 9.64135 13.666C9.503 13.6024 9.38228 13.506 9.28966 13.3852L9.22733 13.2926C9.10191 13.0903 8.90275 12.9448 8.67196 12.8867C8.44116 12.8286 8.19683 12.8626 7.99062 12.9814C7.78442 13.1002 7.6325 13.2946 7.56701 13.5234C7.50151 13.7522 7.52757 13.9975 7.63966 14.2074C7.87363 14.6132 8.20737 14.9525 8.60923 15.1931C9.01108 15.4337 9.46775 15.5678 9.93591 15.5824H10.0835C10.0833 15.8071 10.1656 16.024 10.3148 16.192C10.4641 16.36 10.6698 16.4673 10.8929 16.4936L11.0002 16.5C11.2433 16.5 11.4764 16.4034 11.6483 16.2315C11.8203 16.0596 11.9168 15.8264 11.9168 15.5833L12.0782 15.5787C12.7928 15.5374 13.4632 15.2191 13.9468 14.6914C14.4305 14.1637 14.6893 13.4682 14.6683 12.7526C14.6473 12.0371 14.3481 11.358 13.8343 10.8595C13.3205 10.3611 12.6327 10.0826 11.9168 10.0833V8.25C12.245 8.239 12.5319 8.37833 12.7107 8.61483L12.773 8.70742C12.8984 8.90968 13.0976 9.05523 13.3284 9.11331C13.5592 9.17138 13.8035 9.13741 14.0097 9.0186C14.2159 8.89978 14.3678 8.70542 14.4333 8.47662C14.4988 8.24782 14.4728 8.00252 14.3607 7.79258C14.1268 7.38664 13.7931 7.04716 13.3913 6.80637C12.9894 6.56557 12.5327 6.43143 12.0644 6.41667H11.9168C11.9168 6.17355 11.8203 5.94039 11.6483 5.76849C11.4764 5.59658 11.2433 5.5 11.0002 5.5ZM11.9168 11.9167C12.1599 11.9167 12.3931 12.0132 12.565 12.1852C12.7369 12.3571 12.8335 12.5902 12.8335 12.8333C12.8335 13.0764 12.7369 13.3096 12.565 13.4815C12.3931 13.6534 12.1599 13.75 11.9168 13.75V11.9167ZM10.0835 8.25V10.0833C9.84038 10.0833 9.60722 9.98675 9.43532 9.81485C9.26341 9.64294 9.16683 9.40978 9.16683 9.16667C9.16683 8.92355 9.26341 8.69039 9.43532 8.51849C9.60722 8.34658 9.84038 8.25 10.0835 8.25Z" fill="url(#paint0_linear_345_33116)"/>
<defs>
<linearGradient id="paint0_linear_345_33116" x1="1.8335" y1="11.0002" x2="20.1668" y2="11.0002" gradientUnits="userSpaceOnUse">
<stop stop-color="#FFE5B3"/>
<stop offset="1" stop-color="#FF8D64"/>
</linearGradient>
</defs>
</svg>
